<?xml version="1.0" encoding="UTF-8" standalone="no"?>
<!-- Created with Inkscape (http://www.inkscape.org/) -->

<svg
   xmlns:dc="http://purl.org/dc/elements/1.1/"
   xmlns:cc="http://creativecommons.org/ns#"
   xmlns:rdf="http://www.w3.org/1999/02/22-rdf-syntax-ns#"
   xmlns:svg="http://www.w3.org/2000/svg"
   xmlns="http://www.w3.org/2000/svg"
   xmlns:sodipodi="http://sodipodi.sourceforge.net/DTD/sodipodi-0.dtd"
   xmlns:inkscape="http://www.inkscape.org/namespaces/inkscape"
   width="210mm"
   height="297mm"
   viewBox="0 0 210 297"
   version="1.1"
   id="svg19695"
   inkscape:version="0.92.1 r15371"
   sodipodi:docname="logo.svg">
  <defs
     id="defs19689">
    <clipPath
       clipPathUnits="userSpaceOnUse"
       id="clipPath8784">
      <path
         clip-path="url(#clipPath8758)"
         transform="matrix(0.07643193,0,0,0.07643193,299.29129,244.87657)"
         id="path8786"
         d="m -3511.8984,-2624.293 v 1968.71488 h 1968.7168 V -2624.293 Z m 773.0273,776.7618 h 26.4473 v 123.2792 c 0,17.063 2.3477,17.0645 12.7988,17.0645 l -2.3477,21.7539 h -9.5976 c -18.9826,0 -27.3008,-12.5828 -27.3008,-27.9394 z m -213.3496,10.664 h 20.0488 l -15.3574,40.0977 h 24.3145 l 15.3574,-40.0977 h 20.0488 l -15.3574,40.0977 h 23.6758 l -7.252,20.9023 h -24.3144 l -7.8926,21.1152 h 26.6621 l -10.2383,22.1817 h -24.9551 l -17.916,47.3496 h -20.4746 l 17.916,-47.3496 h -23.8887 l -18.3417,47.3496 h -20.0508 l 17.9179,-47.3496 h -25.1679 l 9.8105,-22.1817 h 23.8887 l 7.8906,-21.1152 h -25.8066 l 6.8242,-20.9023 h 26.875 z m 96.1777,0 h 95.5528 v 26.4473 h -67.6114 v 31.7793 h 52.4688 v 26.4492 h -52.4688 v 38.1777 h 69.7442 v 26.4473 h -97.6856 z m 160.0723,0 h 111.7637 v 26.4473 h -42.2305 v 122.8535 h -27.3008 v -122.8535 h -42.2324 z m 156.3301,40.9512 c 23.8881,0 38.6054,11.9444 38.6054,42.8711 v 28.7929 c 0,15.9966 1.7065,17.0645 9.3848,17.0645 h 3.4121 l -2.3457,21.7539 h -9.5976 c -11.9441,0 -19.8363,-4.906 -23.8887,-12.3711 -7.0385,7.8916 -19.8356,12.3711 -32.6328,12.3711 -17.063,0 -30.9278,-11.7299 -30.9278,-31.9922 0,-30.0735 39.8846,-37.5398 59.9336,-38.1797 -0.6398,-12.1573 -5.5449,-17.4883 -19.1953,-17.4883 -9.5979,2e-4 -17.9165,2.5581 -29.2207,8.1036 l -2.3457,-21.541 c 12.7973,-6.1855 25.5946,-9.3848 38.8184,-9.3848 z m 114.7578,0 c 33.2728,0 45.4316,20.903 45.4316,50.9765 v 57.3731 h -26.4472 v -57.3731 c 0,-19.8357 -6.1871,-29.2207 -21.1172,-29.2207 -8.9581,0 -15.1432,3.4112 -20.0489,9.17 v 77.4238 h -26.4472 v -106.6426 h 24.7422 l 0.4257,6.3985 c 6.1855,-4.4791 15.1428,-8.1055 23.461,-8.1055 z m 107.4414,0 c 9.5979,0 17.9158,2.346 24.3144,6.3984 4.2658,-2.3461 12.7978,-4.6914 22.8223,-4.6914 h 6.8242 l -1.705,16.6367 h -9.5997 c -1.2797,0 -3.6245,-4e-4 -5.9707,0.2129 4.2658,6.6119 6.3985,14.9295 6.3985,23.461 0,22.8217 -15.1434,42.0175 -43.084,42.0175 -4.0525,0 -7.6788,-0.4265 -11.3047,-1.0664 -1.493,0.6399 -2.3457,1.9191 -2.3457,3.4121 0,5.1189 9.1706,6.6133 26.6602,8.7461 15.1434,1.9196 42.8711,6.3974 42.8711,32.2051 0,20.6889 -18.1304,34.3399 -50.9766,34.3399 -35.4057,0 -50.334,-15.7832 -50.334,-31.5664 0,-10.2378 6.1841,-17.9167 17.4883,-23.8887 -5.7588,-3.6259 -9.5977,-8.317 -9.5977,-15.3555 0,-6.6119 3.6256,-11.0913 10.6641,-14.5039 -10.6644,-7.6783 -16.4219,-20.2629 -16.4219,-34.3398 0,-22.8218 15.3563,-42.0176 43.2969,-42.0176 z m 115.6113,0 c 34.126,0 53.961,25.382 53.961,55.2422 0,29.8602 -19.835,55.2402 -53.961,55.2402 -34.1259,0 -53.9609,-25.38 -53.9609,-55.2402 0,-29.8602 19.835,-55.2422 53.9609,-55.2422 z m -115.6113,19.4101 c -13.0105,0 -19.6231,8.9571 -19.6231,22.6075 0,13.6503 6.6126,22.6093 19.6231,22.6093 12.7972,0 19.4082,-8.959 19.4082,-22.6093 0,-13.6504 -6.611,-22.6075 -19.4082,-22.6075 z m -637.9785,0.6387 -8.3184,21.1152 h 24.3145 l 8.3183,-21.1152 z m 753.5898,1.707 c -17.063,0 -26.875,13.6507 -26.875,33.4864 0,19.8357 9.812,33.4863 26.875,33.4863 17.063,0 26.875,-13.6506 26.875,-33.4863 0,-19.8357 -9.812,-33.4864 -26.875,-33.4864 z m -325.6523,36.4707 c -14.9301,0.6399 -32.4199,6.6134 -32.4199,19.1973 0,8.7448 4.2645,12.7969 14.289,12.7969 4.6923,0 12.5854,-2.3456 18.1309,-7.6777 z m 201.2949,54.6016 c -7.6783,2.5595 -14.7168,6.6119 -14.7168,14.7168 0,9.3846 9.8116,15.3574 27.0879,15.3574 16.4231,0 28.7949,-5.3325 28.7949,-14.5039 0,-10.2378 -14.9301,-12.1574 -28.3672,-13.6504 -3.8391,-0.4265 -8.1065,-1.0667 -12.7988,-1.9199 z m -220.6758,22.9297 c 20.4756,0 39.8842,6.3987 47.5625,11.5176 l -2.7734,27.9394 c -15.9966,-8.7447 -29.4324,-13.4355 -43.7227,-13.4355 -11.5175,0 -27.3008,2.9859 -27.3008,15.7832 0,11.9441 13.8625,16.6354 30.0723,21.541 23.2483,7.0385 51.6152,15.5698 51.6152,48.416 0,17.063 -7.4649,43.5117 -57.8007,43.5117 -22.6085,0 -40.951,-5.3334 -49.4825,-10.8789 l 3.1993,-31.1386 c 8.1049,7.8916 24.5286,15.7832 46.9238,15.7832 15.9965,0 26.6601,-4.0536 26.6601,-16.211 0,-15.1434 -16.6362,-20.4748 -34.7656,-26.6601 -21.1154,-7.2518 -44.1504,-14.718 -44.1504,-41.3789 0,-19.8358 13.6516,-44.7891 53.9629,-44.7891 z m -310.1699,2.9863 h 26.873 l 63.7735,96.4043 v -96.4043 h 27.3008 v 149.3008 h -22.3946 l -68.2519,-102.3789 v 102.3789 h -27.3008 z m 191.3945,40.9512 c 34.126,0 53.9629,25.38 53.9629,55.2402 0,29.8602 -19.8369,55.2422 -53.9629,55.2422 -34.1259,0 -53.9609,-25.382 -53.9609,-55.2422 0,-29.8602 19.835,-55.2402 53.9609,-55.2402 z m 237.5918,0 c 26.8742,0 46.9239,18.1293 46.9239,46.2832 0,4.6923 -0.6406,9.385 -1.7071,14.5039 h -68.8906 c 2.986,19.8357 17.7023,27.9395 31.7793,27.9395 10.0245,0 24.1009,-4.0519 32.8457,-8.7442 l 1.2793,22.3945 c -8.1049,4.2659 -20.4738,8.1055 -35.6172,8.1055 -38.605,0 -57.8008,-25.382 -57.8008,-55.2422 0,-29.6469 18.3413,-55.2402 51.1875,-55.2402 z m -237.5918,21.7539 c -17.063,0 -26.873,13.6506 -26.873,33.4863 0,19.8357 9.81,33.4864 26.873,33.4864 17.063,0 26.875,-13.6507 26.875,-33.4864 0,-19.8357 -9.812,-33.4863 -26.875,-33.4863 z m 238.4453,0 c -13.6503,0 -21.3292,8.9579 -23.8886,21.1152 h 43.084 c 0,-9.5979 -4.9051,-21.1152 -19.1954,-21.1152 z m -296.998,106.3242 h 26.4473 v 123.2813 c 0,17.063 2.3477,17.0625 12.7988,17.0625 l -2.3477,21.7539 h -9.5976 c -18.9826,0 -27.3008,-12.5828 -27.3008,-27.9395 z m -61.293,7.6778 c 15.57,0 31.5657,3.4139 42.4434,8.746 l -2.9844,26.0215 c -12.3707,-4.9056 -23.889,-8.5332 -39.459,-8.5332 -29.007,0 -43.7246,21.5422 -43.7246,51.4024 0,29.8602 14.7176,51.4023 43.7246,51.4023 15.57,0 27.0883,-3.6256 39.459,-8.5312 l 2.9844,26.0215 c -10.8777,5.3321 -26.8734,8.7441 -42.4434,8.7441 -42.6574,0 -73.584,-30.7135 -73.584,-77.6367 0,-46.9232 30.9266,-77.6367 73.584,-77.6367 z m 157.6289,43.9375 c 23.8882,0 38.6055,11.9443 38.6055,42.8711 v 28.7949 c 0,15.9965 1.7064,17.0625 9.3848,17.0625 h 3.4121 l -2.3457,21.7539 h -9.5977 c -11.9441,0 -19.8362,-4.9041 -23.8887,-12.3692 -7.0384,7.8917 -19.8355,12.3692 -32.6328,12.3692 -17.0629,0 -30.9258,-11.7299 -30.9258,-31.9922 0,-30.0735 39.8846,-37.5379 59.9336,-38.1777 -0.6398,-12.1574 -5.5468,-17.4903 -19.1972,-17.4903 -9.5979,0 -17.9145,2.56 -29.2188,8.1055 l -2.3476,-21.543 c 12.7972,-6.1853 25.5945,-9.3847 38.8183,-9.3847 z m 217.5274,0 c 13.8636,0 27.7275,4.0534 33.4863,7.8925 l -2.3477,22.6075 c -5.3321,-5.3322 -17.7012,-11.5176 -29.2187,-11.5176 -9.1714,0 -17.7031,3.2009 -17.7031,11.7324 0,10.2378 10.8773,11.944 24.3144,15.7832 14.2903,4.0525 29.2207,10.6642 29.2207,32.6328 0,13.0105 -5.3325,31.3516 -41.8047,31.3516 -16.6364,0 -29.8596,-3.8382 -36.0449,-7.8906 l 2.3457,-22.6094 c 6.6119,5.1189 20.9016,10.666 32.8457,10.666 12.7973,0 16.211,-6.4002 16.211,-11.7324 0,-8.9581 -9.172,-11.9433 -19.6231,-15.1426 -14.9301,-4.479 -30.7129,-9.3838 -30.7129,-29.8594 0,-14.9301 8.9578,-33.914 39.0313,-33.914 z m 227.6972,0 h 7.0391 l -5.1191,24.955 h -9.8125 c -8.7448,0 -16.4222,4.6921 -19.4082,10.6641 v 72.7305 h -26.4473 v -106.6426 h 24.7402 l 0.6407,11.3047 c 5.5454,-5.7588 16.2098,-13.0117 28.3671,-13.0117 z m 58,0 c 23.8882,0 38.6055,11.9443 38.6055,42.8711 v 28.7949 c 0,15.9965 1.7064,17.0625 9.3848,17.0625 h 3.4121 l -2.3457,21.7539 h -9.5977 c -11.9441,0 -19.8362,-4.9041 -23.8886,-12.3692 -7.0385,7.8917 -19.8356,12.3692 -32.6329,12.3692 -17.0629,0 -30.9257,-11.7299 -30.9257,-31.9922 0,-30.0735 39.8846,-37.5379 59.9336,-38.1777 -0.6399,-12.1574 -5.5469,-17.4903 -19.1973,-17.4903 -9.5979,0 -17.9145,2.56 -29.2188,8.1055 l -2.3476,-21.543 c 12.7972,-6.1853 25.5945,-9.3847 38.8183,-9.3847 z m -438.9941,1.707 h 26.4473 v 57.375 c 0,19.8357 6.1851,29.2187 21.1152,29.2187 8.7448,0 15.1432,-3.1982 20.0488,-8.957 v -77.6367 h 26.4473 v 106.6426 h -24.7402 l -0.4278,-6.3985 c -6.1853,4.6923 -15.3556,8.5313 -23.6738,8.5313 -33.2728,0 -45.2168,-21.3269 -45.2168,-51.4004 z m 208.2871,0 h 26.4492 v 57.375 c 0,19.8357 6.1852,29.2187 21.1153,29.2187 8.7447,0 15.1432,-3.1982 20.0488,-8.957 v -77.6367 h 26.4473 v 106.6426 h -24.7422 l -0.4258,-6.3985 c -6.1853,4.6923 -15.3576,8.5313 -23.6758,8.5313 -33.2728,0 -45.2168,-21.3269 -45.2168,-51.4004 z m -260.3594,56.5215 c -14.9301,0.6398 -32.4199,6.6113 -32.4199,19.1953 0,8.7448 4.2665,12.7969 14.291,12.7969 4.6923,0 12.5835,-2.3456 18.1289,-7.6778 z m 503.2246,0 c -14.9301,0.6398 -32.4199,6.6113 -32.4199,19.1953 0,8.7448 4.2665,12.7969 14.291,12.7969 4.6924,0 12.5835,-2.3456 18.1289,-7.6778 z"
         style="opacity:1;fill:#000000;fill-opacity:1;stroke:none;stroke-width:34.61685944;stroke-miterlimit:4;stroke-dasharray:none;stroke-opacity:1"
         inkscape:connector-curvature="0" />
    </clipPath>
  </defs>
  <sodipodi:namedview
     id="base"
     pagecolor="#ffffff"
     bordercolor="#666666"
     borderopacity="1.0"
     inkscape:pageopacity="0.0"
     inkscape:pageshadow="2"
     inkscape:zoom="0.35"
     inkscape:cx="-425.71429"
     inkscape:cy="537.14286"
     inkscape:document-units="mm"
     inkscape:current-layer="layer1"
     showgrid="false"
     inkscape:window-width="3200"
     inkscape:window-height="1690"
     inkscape:window-x="0"
     inkscape:window-y="54"
     inkscape:window-maximized="1" />
  <metadata
     id="metadata19692">
    <rdf:RDF>
      <cc:Work
         rdf:about="">
        <dc:format>image/svg+xml</dc:format>
        <dc:type
           rdf:resource="http://purl.org/dc/dcmitype/StillImage" />
        <dc:title></dc:title>
      </cc:Work>
    </rdf:RDF>
  </metadata>
  <g
     inkscape:label="Layer 1"
     inkscape:groupmode="layer"
     id="layer1">
    <g
       style="display:inline"
       id="g8756"
       transform="matrix(1.4453346,0,0,1.4453346,-44.500668,-66.939137)"
       clip-path="url(#clipPath8784)">
      <g
         id="g8754">
        <path
           clip-path="none"
           sodipodi:nodetypes="ccccccccc"
           inkscape:connector-curvature="0"
           id="path8744"
           d="m 46.007192,93.189481 c 10.016367,-7.231944 20.032733,-14.463889 30.0491,-21.695833 10.016367,5.997222 20.032741,11.994444 30.049108,17.991666 10.01637,-5.997222 20.03274,-11.994444 30.04911,-17.991666 10.01637,7.231944 20.03273,14.463889 30.0491,21.695833 V 131.59187 L 106.1054,176.87341 46.007192,131.59187 Z"
           style="opacity:1;fill:#b521ae;fill-opacity:1;stroke:none;stroke-width:2.64583325;stroke-miterlimit:4;stroke-dasharray:none;stroke-opacity:1" />
        <path
           style="opacity:1;fill:#9f1c97;fill-opacity:1;stroke:none;stroke-width:2.64583325;stroke-miterlimit:4;stroke-dasharray:none;stroke-opacity:1"
           d="M 46.007192,93.189481 106.1054,176.87341 46.007192,131.59187 Z"
           id="path8746"
           inkscape:connector-curvature="0"
           sodipodi:nodetypes="cccc"
           clip-path="none" />
        <path
           style="opacity:1;fill:#d92ed1;fill-opacity:1;stroke:none;stroke-width:2.64583325;stroke-miterlimit:4;stroke-dasharray:none;stroke-opacity:1"
           d="M 166.20361,93.189481 V 131.59187 L 106.1054,176.87341 Z"
           id="path8748"
           inkscape:connector-curvature="0"
           sodipodi:nodetypes="cccc"
           clip-path="none" />
        <path
           style="opacity:1;fill:#9f1c97;fill-opacity:1;stroke:none;stroke-width:2.64583325;stroke-miterlimit:4;stroke-dasharray:none;stroke-opacity:1"
           d="M 106.1054,89.485314 136.15451,71.493648 106.1054,176.87341 Z"
           id="path8750"
           inkscape:connector-curvature="0"
           sodipodi:nodetypes="cccc"
           clip-path="none" />
        <path
           style="opacity:1;fill:#d92ed1;fill-opacity:1;stroke:none;stroke-width:2.64583325;stroke-miterlimit:4;stroke-dasharray:none;stroke-opacity:1"
           d="M 76.056292,71.493648 106.1054,89.485314 v 87.388096 z"
           id="path8752"
           inkscape:connector-curvature="0"
           sodipodi:nodetypes="cccc"
           clip-path="none" />
      </g>
    </g>
  </g>
</svg>
