<?xml version="1.0" encoding="UTF-8" standalone="no"?>
<!-- Created with Inkscape (http://www.inkscape.org/) -->

<svg
   xmlns:dc="http://purl.org/dc/elements/1.1/"
   xmlns:cc="http://creativecommons.org/ns#"
   xmlns:rdf="http://www.w3.org/1999/02/22-rdf-syntax-ns#"
   xmlns:svg="http://www.w3.org/2000/svg"
   xmlns="http://www.w3.org/2000/svg"
   xmlns:sodipodi="http://sodipodi.sourceforge.net/DTD/sodipodi-0.dtd"
   xmlns:inkscape="http://www.inkscape.org/namespaces/inkscape"
   width="210mm"
   height="297mm"
   viewBox="0 0 210 297"
   version="1.1"
   id="svg19695"
   inkscape:version="0.92.1 r15371"
   sodipodi:docname="logo.svg">
  <defs
     id="defs19689">
    <clipPath
       clipPathUnits="userSpaceOnUse"
       id="clipPath8784">
      <path
         clip-path="url(#clipPath8758)"
         transform="matrix(0.07643193,0,0,0.07643193,299.29129,244.87657)"
         id="path8786"
         d="m -3511.8984,-2624.293 v 1968.71488 h 1968.7168 V -2624.293 Z m 773.0273,776.7618 h 26.4473 v 123.2792 c 0,17.063 2.3477,17.0645 12.7988,17.0645 l -2.3477,21.7539 h -9.5976 c -18.9826,0 -27.3008,-12.5828 -27.3008,-27.9394 z m -213.3496,10.664 h 20.0488 l -15.3574,40.0977 h 24.3145 l 15.3574,-40.0977 h 20.0488 l -15.3574,40.0977 h 23.6758 l -7.252,20.9023 h -24.3144 l -7.8926,21.1152 h 26.6621 l -10.2383,22.1817 h -24.9551 l -17.916,47.3496 h -20.4746 l 17.916,-47.3496 h -23.8887 l -18.3417,47.3496 h -20.0508 l 17.9179,-47.3496 h -25.1679 l 9.8105,-22.1817 h 23.8887 l 7.8906,-21.1152 h -25.8066 l 6.8242,-20.9023 h 26.875 z m 96.1777,0 h 95.5528 v 26.4473 h -67.6114 v 31.7793 h 52.4688 v 26.4492 h -52.4688 v 38.1777 h 69.7442 v 26.4473 h -97.6856 z m 160.0723,0 h 111.7637 v 26.4473 h -42.2305 v 122.8535 h -27.3008 v -122.8535 h -42.2324 z m 156.3301,40.9512 c 23.8881,0 38.6054,11.9444 38.6054,42.8711 v 28.7929 c 0,15.9966 1.7065,17.0645 9.3848,17.0645 h 3.4121 l -2.3457,21.7539 h -9.5976 c -11.9441,0 -19.8363,-4.906 -23.8887,-12.3711 -7.0385,7.8916 -19.8356,12.3711 -32.6328,12.3711 -17.063,0 -30.9278,-11.7299 -30.9278,-31.9922 0,-30.0735 39.8846,-37.5398 59.9336,-38.1797 -0.6398,-12.1573 -5.5449,-17.4883 -19.1953,-17.4883 -9.5979,2e-4 -17.9165,2.5581 -29.2207,8.1036 l -2.3457,-21.541 c 12.7973,-6.1855 25.5946,-9.3848 38.8184,-9.3848 z m 114.7578,0 c 33.2728,0 45.4316,20.903 45.4316,50.9765 v 57.3731 h -26.4472 v -57.3731 c 0,-19.8357 -6.1871,-29.2207 -21.1172,-29.2207 -8.9581,0 -15.1432,3.4112 -20.0489,9.17 v 77.4238 h -26.4472 v -106.6426 h 24.7422 l 0.4257,6.3985 c 6.1855,-4.4791 15.1428,-8.1055 23.461,-8.1055 z m 107.4414,0 c 9.5979,0 17.9158,2.346 24.3144,6.3984 4.2658,-2.3461 12.7978,-4.6914 22.8223,-4.6914 h 6.8242 l -1.705,16.6367 h -9.5997 c -1.2797,0 -3.6245,-4e-4 -5.9707,0.2129 4.2658,6.6119 6.3985,14.9295 6.3985,23.461 0,22.8217 -15.1434,42.0175 -43.084,42.0175 -4.0525,0 -7.6788,-0.4265 -11.3047,-1.0664 -1.493,0.6399 -2.3457,1.9191 -2.3457,3.4121 0,5.1189 9.1706,6.6133 26.6602,8.7461 15.1434,1.9196 42.8711,6.3974 42.8711,32.2051 0,20.6889 -18.1304,34.3399 -50.9766,34.3399 -35.4057,0 -50.334,-15.7832 -50.334,-31.5664 0,-10.2378 6.1841,-17.9167 17.4883,-23.8887 -5.7588,-3.6259 -9.5977,-8.317 -9.5977,-15.3555 0,-6.6119 3.6256,-11.0913 10.6641,-14.5039 -10.6644,-7.6783 -16.4219,-20.2629 -16.4219,-34.3398 0,-22.8218 15.3563,-42.0176 43.2969,-42.0176 z m 115.6113,0 c 34.126,0 53.961,25.382 53.961,55.2422 0,29.8602 -19.835,55.2402 -53.961,55.2402 -34.1259,0 -53.9609,-25.38 -53.9609,-55.2402 0,-29.8602 19.835,-55.2422 53.9609,-55.2422 z m -115.6113,19.4101 c -13.0105,0 -19.6231,8.9571 -19.6231,22.6075 0,13.6503 6.6126,22.6093 19.6231,22.6093 12.7972,0 19.4082,-8.959 19.4082,-22.6093 0,-13.6504 -6.611,-22.6075 -19.4082,-22.6075 z m -637.9785,0.6387 -8.3184,21.1152 h 24.3145 l 8.3183,-21.1152 z m 753.5898,1.707 c -17.063,0 -26.875,13.6507 -26.875,33.4864 0,19.8357 9.812,33.4863 26.875,33.4863 17.063,0 26.875,-13.6506 26.875,-33.4863 0,-19.8357 -9.812,-33.4864 -26.875,-33.4864 z m -325.6523,36.4707 c -14.9301,0.6399 -32.4199,6.6134 -32.4199,19.1973 0,8.7448 4.2645,12.7969 14.289,12.7969 4.6923,0 12.5854,-2.3456 18.1309,-7.6777 z m 201.2949,54.6016 c -7.6783,2.5595 -14.7168,6.6119 -14.7168,14.7168 0,9.3846 9.8116,15.3574 27.0879,15.3574 16.4231,0 28.7949,-5.3325 28.7949,-14.5039 0,-10.2378 -14.9301,-12.1574 -28.3672,-13.6504 -3.8391,-0.4265 -8.1065,-1.0667 -12.7988,-1.9199 z m -220.6758,22.9297 c 20.4756,0 39.8842,6.3987 47.5625,11.5176 l -2.7734,27.9394 c -15.9966,-8.7447 -29.4324,-13.4355 -43.7227,-13.4355 -11.5175,0 -27.3008,2.9859 -27.3008,15.7832 0,11.9441 13.8625,16.6354 30.0723,21.541 23.2483,7.0385 51.6152,15.5698 51.6152,48.416 0,17.063 -7.4649,43.5117 -57.8007,43.5117 -22.6085,0 -40.951,-5.3334 -49.4825,-10.8789 l 3.1993,-31.1386 c 8.1049,7.8916 24.5286,15.7832 46.9238,15.7832 15.9965,0 26.6601,-4.0536 26.6601,-16.211 0,-15.1434 -16.6362,-20.4748 -34.7656,-26.6601 -21.1154,-7.2518 -44.1504,-14.718 -44.1504,-41.3789 0,-19.8358 13.6516,-44.7891 53.9629,-44.7891 z m -310.1699,2.9863 h 26.873 l 63.7735,96.4043 v -96.4043 h 27.3008 v 149.3008 h -22.3946 l -68.2519,-102.3789 v 102.3789 h -27.3008 z m 191.3945,40.9512 c 34.126,0 53.9629,25.38 53.9629,55.2402 0,29.8602 -19.8369,55.2422 -53.9629,55.2422 -34.1259,0 -53.9609,-25.382 -53.9609,-55.2422 0,-29.8602 19.835,-55.2402 53.9609,-55.2402 z m 237.5918,0 c 26.8742,0 46.9239,18.1293 46.9239,46.2832 0,4.6923 -0.6406,9.385 -1.7071,14.5039 h -68.8906 c 2.986,19.8357 17.7023,27.9395 31.7793,27.9395 10.0245,0 24.1009,-4.0519 32.8457,-8.7442 l 1.2793,22.3945 c -8.1049,4.2659 -20.4738,8.1055 -35.6172,8.1055 -38.605,0 -57.8008,-25.382 -57.8008,-55.2422 0,-29.6469 18.3413,-55.2402 51.1875,-55.2402 z m -237.5918,21.7539 c -17.063,0 -26.873,13.6506 -26.873,33.4863 0,19.8357 9.81,33.4864 26.873,33.4864 17.063,0 26.875,-13.6507 26.875,-33.4864 0,-19.8357 -9.812,-33.4863 -26.875,-33.4863 z m 238.4453,0 c -13.6503,0 -21.3292,8.9579 -23.8886,21.1152 h 43.084 c 0,-9.5979 -4.9051,-21.1152 -19.1954,-21.1152 z m -296.998,106.3242 h 26.4473 v 123.2813 c 0,17.063 2.3477,17.0625 12.7988,17.0625 l -2.3477,21.7539 h -9.5976 c -18.9826,0 -27.3008,-12.5828 -27.3008,-27.9395 z m -61.293,7.6778 c 15.57,0 31.5657,3.4139 42.4434,8.746 l -2.9844,26.0215 c -12.3707,-4.9056 -23.889,-8.5332 -39.459,-8.5332 -29.007,0 -43.7246,21.5422 -43.7246,51.4024 0,29.8602 14.7176,51.4023 43.7246,51.4023 15.57,0 27.0883,-3.6256 39.459,-8.5312 l 2.9844,26.0215 c -10.8777,5.3321 -26.8734,8.7441 -42.4434,8.7441 -42.6574,0 -73.584,-30.7135 -73.584,-77.6367 0,-46.9232 30.9266,-77.6367 73.584,-77.6367 z m 157.6289,43.9375 c 23.8882,0 38.6055,11.9443 38.6055,42.8711 v 28.7949 c 0,15.9965 1.7064,17.0625 9.3848,17.0625 h 3.4121 l -2.3457,21.7539 h -9.5977 c -11.9441,0 -19.8362,-4.9041 -23.8887,-12.3692 -7.0384,7.8917 -19.8355,12.3692 -32.6328,12.3692 -17.0629,0 -30.9258,-11.7299 -30.9258,-31.9922 0,-30.0735 39.8846,-37.5379 59.9336,-38.1777 -0.6398,-12.1574 -5.5468,-17.4903 -19.1972,-17.4903 -9.5979,0 -17.9145,2.56 -29.2188,8.1055 l -2.3476,-21.543 c 12.7972,-6.1853 25.5945,-9.3847 38.8183,-9.3847 z m 217.5274,0 c 13.8636,0 27.7275,4.0534 33.4863,7.8925 l -2.3477,22.6075 c -5.3321,-5.3322 -17.7012,-11.5176 -29.2187,-11.5176 -9.1714,0 -17.7031,3.2009 -17.7031,11.7324 0,10.2378 10.8773,11.944 24.3144,15.7832 14.2903,4.0525 29.2207,10.6642 29.2207,32.6328 0,13.0105 -5.3325,31.3516 -41.8047,31.3516 -16.6364,0 -29.8596,-3.8382 -36.0449,-7.8906 l 2.3457,-22.6094 c 6.6119,5.1189 20.9016,10.666 32.8457,10.666 12.7973,0 16.211,-6.4002 16.211,-11.7324 0,-8.9581 -9.172,-11.9433 -19.6231,-15.1426 -14.9301,-4.479 -30.7129,-9.3838 -30.7129,-29.8594 0,-14.9301 8.9578,-33.914 39.0313,-33.914 z m 227.6972,0 h 7.0391 l -5.1191,24.955 h -9.8125 c -8.7448,0 -16.4222,4.6921 -19.4082,10.6641 v 72.7305 h -26.4473 v -106.6426 h 24.7402 l 0.6407,11.3047 c 5.5454,-5.7588 16.2098,-13.0117 28.3671,-13.0117 z m 58,0 c 23.8882,0 38.6055,11.9443 38.6055,42.8711 v 28.7949 c 0,15.9965 1.7064,17.0625 9.3848,17.0625 h 3.4121 l -2.3457,21.7539 h -9.5977 c -11.9441,0 -19.8362,-4.9041 -23.8886,-12.3692 -7.0385,7.8917 -19.8356,12.3692 -32.6329,12.3692 -17.0629,0 -30.9257,-11.7299 -30.9257,-31.9922 0,-30.0735 39.8846,-37.5379 59.9336,-38.1777 -0.6399,-12.1574 -5.5469,-17.4903 -19.1973,-17.4903 -9.5979,0 -17.9145,2.56 -29.2188,8.1055 l -2.3476,-21.543 c 12.7972,-6.1853 25.5945,-9.3847 38.8183,-9.3847 z m -438.9941,1.707 h 26.4473 v 57.375 c 0,19.8357 6.1851,29.2187 21.1152,29.2187 8.7448,0 15.1432,-3.1982 20.0488,-8.957 v -77.6367 h 26.4473 v 106.6426 h -24.7402 l -0.4278,-6.3985 c -6.1853,4.6923 -15.3556,8.5313 -23.6738,8.5313 -33.2728,0 -45.2168,-21.3269 -45.2168,-51.4004 z m 208.2871,0 h 26.4492 v 57.375 c 0,19.8357 6.1852,29.2187 21.1153,29.2187 8.7447,0 15.1432,-3.1982 20.0488,-8.957 v -77.6367 h 26.4473 v 106.6426 h -24.7422 l -0.4258,-6.3985 c -6.1853,4.6923 -15.3576,8.5313 -23.6758,8.5313 -33.2728,0 -45.2168,-21.3269 -45.2168,-51.4004 z m -260.3594,56.5215 c -14.9301,0.6398 -32.4199,6.6113 -32.4199,19.1953 0,8.7448 4.2665,12.7969 14.291,12.7969 4.6923,0 12.5835,-2.3456 18.1289,-7.6778 z m 503.2246,0 c -14.9301,0.6398 -32.4199,6.6113 -32.4199,19.1953 0,8.7448 4.2665,12.7969 14.291,12.7969 4.6924,0 12.5835,-2.3456 18.1289,-7.6778 z"
         style="opacity:1;fill:#000000;fill-opacity:1;stroke:none;stroke-width:34.61685944;stroke-miterlimit:4;stroke-dasharray:none;stroke-opacity:1"
         inkscape:connector-curvature="0" />
    </clipPath>
  </defs>
  <sodipodi:namedview
     id="base"
     pagecolor="#ffffff"
     bordercolor="#666666"
     borderopacity="1.0"
     inkscape:pageopacity="0.0"
     inkscape:pageshadow="2"
     inkscape:zoom="0.49497475"
     inkscape:cx="833.82406"
     inkscape:cy="697.82241"
     inkscape:document-units="mm"
     inkscape:current-layer="layer1"
     showgrid="false"
     inkscape:window-width="3200"
     inkscape:window-height="1690"
     inkscape:window-x="0"
     inkscape:window-y="54"
     inkscape:window-maximized="1" />
  <metadata
     id="metadata19692">
    <rdf:RDF>
      <cc:Work
         rdf:about="">
        <dc:format>image/svg+xml</dc:format>
        <dc:type
           rdf:resource="http://purl.org/dc/dcmitype/StillImage" />
        <dc:title />
      </cc:Work>
    </rdf:RDF>
  </metadata>
  <g
     inkscape:label="Layer 1"
     inkscape:groupmode="layer"
     id="layer1">
    <g
       id="g25046"
       transform="matrix(0.33224396,0,0,0.33224396,70.051321,231.42007)"
       inkscape:export-filename="/home/xaiki/logo-300.png"
       inkscape:export-xdpi="300"
       inkscape:export-ydpi="300">
      <path
         style="display:inline;opacity:1;fill:#b521ae;fill-opacity:1;stroke:none;stroke-width:2.64583325;stroke-miterlimit:4;stroke-dasharray:none;stroke-opacity:1"
         d="m 46.007192,93.189481 30.0491,-21.695833 30.049108,22.666831 30.04911,-22.666831 c 10.01637,7.231944 20.03273,14.463889 30.0491,21.695833 V 131.59187 L 106.1054,176.87341 46.007192,131.59187 Z"
         id="path24990"
         inkscape:connector-curvature="0"
         sodipodi:nodetypes="ccccccccc"
         clip-path="none"
         transform="matrix(4.2159663,0,0,4.2159663,-341.23141,-929.18158)" />
      <path
         id="path24992"
         transform="matrix(0.26458333,0,0,0.26458333,-2.3075814e-7,-9.420819e-6)"
         d="m 879.8418,-2372.6621 -478.81446,361.1816 v 1317.97855 z m -478.81446,1679.16015 -957.625,-1333.45115 v 611.9179 z"
         clip-path="none"
         style="display:inline;opacity:1;fill:#9f1c97;fill-opacity:1;stroke:none;stroke-width:42.15966034;stroke-miterlimit:4;stroke-dasharray:none;stroke-opacity:1"
         inkscape:connector-curvature="0" />
      <path
         id="path24994"
         transform="matrix(0.26458333,0,0,0.26458333,-2.3075814e-7,-9.420819e-6)"
         d="M -77.785156,-2372.6621 401.02734,-693.50195 V -2011.4805 Z M 401.02734,-693.50195 1358.6543,-1415.0352 v -611.9179 z"
         clip-path="none"
         style="display:inline;opacity:1;fill:#d92ed1;fill-opacity:1;stroke:none;stroke-width:42.15966034;stroke-miterlimit:4;stroke-dasharray:none;stroke-opacity:1"
         inkscape:connector-curvature="0" />
      <g
         transform="matrix(4.2159663,0,0,4.2159663,-341.2314,-931.41253)"
         style="display:inline;fill:#ffffff"
         id="g25044">
        <g
           id="g25010"
           style="font-style:normal;font-variant:normal;font-weight:bold;font-stretch:normal;font-size:40px;line-height:33.70000076px;font-family:Cabin;-inkscape-font-specification:'Cabin Bold';letter-spacing:0px;word-spacing:0px;fill:#ffffff;fill-opacity:1;stroke:none;stroke-width:1px;stroke-linecap:butt;stroke-linejoin:miter;stroke-opacity:1"
           transform="matrix(0.43819909,0,0,0.43819909,-36.494583,-54.744758)"
           aria-label="ElTango  ">
          <path
             inkscape:connector-curvature="0"
             id="path24996"
             d="m 288.07969,391.50431 v -4.96 h -13.08 v -7.16 h 9.84 v -4.96 h -9.84 v -5.96 h 12.68 v -4.96 h -17.92 v 28 z" />
          <path
             inkscape:connector-curvature="0"
             id="path24998"
             d="m 299.09406,387.82431 c -1.96,0 -2.4,0 -2.4,-3.2 v -23.12 h -4.96 v 25.16 c 0,2.88 1.56,5.24 5.12,5.24 h 1.8 z" />
          <path
             inkscape:connector-curvature="0"
             id="path25000"
             d="m 320.73969,368.46431 v -4.96 h -20.96 v 4.96 h 7.92 v 23.04 h 5.12 v -23.04 z" />
          <path
             inkscape:connector-curvature="0"
             id="path25002"
             d="m 338.73781,387.82431 h -0.64 c -1.44,0 -1.76,-0.2 -1.76,-3.2 v -5.4 c 0,-5.8 -2.76,-8.04 -7.24,-8.04 -2.48,0 -4.88,0.6 -7.28,1.76 l 0.44,4.04 c 2.12,-1.04 3.68,-1.52 5.48,-1.52 2.56,0 3.48,1 3.6,3.28 -3.76,0.12 -11.24,1.52 -11.24,7.16 0,3.8 2.6,6 5.8,6 2.4,0 4.8,-0.84 6.12,-2.32 0.76,1.4 2.24,2.32 4.48,2.32 h 1.8 z m -7.36,-1.16 c -1.04,1 -2.52,1.44 -3.4,1.44 -1.88,0 -2.68,-0.76 -2.68,-2.4 0,-2.36 3.28,-3.48 6.08,-3.6 z" />
          <path
             inkscape:connector-curvature="0"
             id="path25004"
             d="m 359.13969,391.50431 v -10.76 c 0,-5.64 -2.28,-9.56 -8.52,-9.56 -1.56,0 -3.24,0.68 -4.4,1.52 l -0.08,-1.2 h -4.64 v 20 h 4.96 v -14.52 c 0.92,-1.08 2.08,-1.72 3.76,-1.72 2.8,0 3.96,1.76 3.96,5.48 v 10.76 z" />
          <path
             inkscape:connector-curvature="0"
             id="path25006"
             d="m 371.68906,401.50431 c 6.16,0 9.56,-2.56 9.56,-6.44 0,-4.84 -5.2,-5.68 -8.04,-6.04 -3.28,-0.4 -5,-0.68 -5,-1.64 0,-0.28 0.16,-0.52 0.44,-0.64 0.68,0.12 1.36,0.2 2.12,0.2 5.24,0 8.08,-3.6 8.08,-7.88 0,-1.6 -0.4,-3.16 -1.2,-4.4 0.44,-0.04 0.88,-0.04 1.12,-0.04 h 1.8 l 0.32,-3.12 h -1.28 c -1.88,0 -3.48,0.44 -4.28,0.88 -1.2,-0.76 -2.76,-1.2 -4.56,-1.2 -5.24,0 -8.12,3.6 -8.12,7.88 0,2.64 1.08,5 3.08,6.44 -1.32,0.64 -2,1.48 -2,2.72 0,1.32 0.72,2.2 1.8,2.88 -2.12,1.12 -3.28,2.56 -3.28,4.48 0,2.96 2.8,5.92 9.44,5.92 z m -0.92,-26.68 c 2.4,0 3.64,1.68 3.64,4.24 0,2.56 -1.24,4.24 -3.64,4.24 -2.44,0 -3.68,-1.68 -3.68,-4.24 0,-2.56 1.24,-4.24 3.68,-4.24 z m 0.76,17.88 c 2.52,0.28 5.32,0.64 5.32,2.56 0,1.72 -2.32,2.72 -5.4,2.72 -3.24,0 -5.08,-1.12 -5.08,-2.88 0,-1.52 1.32,-2.28 2.76,-2.76 0.88,0.16 1.68,0.28 2.4,0.36 z" />
          <path
             inkscape:connector-curvature="0"
             id="path25008"
             d="m 392.45094,391.90431 c 6.4,0 10.12,-4.76 10.12,-10.36 0,-5.6 -3.72,-10.36 -10.12,-10.36 -6.4,0 -10.12,4.76 -10.12,10.36 0,5.6 3.72,10.36 10.12,10.36 z m 0,-16.64 c 3.2,0 5.04,2.56 5.04,6.28 0,3.72 -1.84,6.28 -5.04,6.28 -3.2,0 -5.04,-2.56 -5.04,-6.28 0,-3.72 1.84,-6.28 5.04,-6.28 z" />
        </g>
        <g
           id="g25028"
           style="font-style:normal;font-variant:normal;font-weight:bold;font-stretch:normal;font-size:40px;line-height:33.70000076px;font-family:Cabin;-inkscape-font-specification:'Cabin Bold';letter-spacing:0px;word-spacing:0px;fill:#ffffff;fill-opacity:1;stroke:none;stroke-width:1px;stroke-linecap:butt;stroke-linejoin:miter;stroke-opacity:1"
           transform="matrix(0.43123632,0,0,0.43123632,-52.572895,-54.933394)"
           aria-label="     Clausura">
          <path
             inkscape:connector-curvature="0"
             id="path25012"
             d="m 308.83281,459.46434 c 2.92,0 5.92,-0.64 7.96,-1.64 l -0.56,-4.88 c -2.32,0.92 -4.48,1.6 -7.4,1.6 -5.44,0 -8.2,-4.04 -8.2,-9.64 0,-5.6 2.76,-9.64 8.2,-9.64 2.92,0 5.08,0.68 7.4,1.6 l 0.56,-4.88 c -2.04,-1 -5.04,-1.64 -7.96,-1.64 -8,0 -13.8,5.76 -13.8,14.56 0,8.8 5.8,14.56 13.8,14.56 z" />
          <path
             inkscape:connector-curvature="0"
             id="path25014"
             d="m 327.68781,455.22434 c -1.96,0 -2.4,0 -2.4,-3.2 v -23.12 h -4.96 v 25.16 c 0,2.88 1.56,5.24 5.12,5.24 h 1.8 z" />
          <path
             inkscape:connector-curvature="0"
             id="path25016"
             d="m 348.03469,455.22434 h -0.64 c -1.44,0 -1.76,-0.2 -1.76,-3.2 v -5.4 c 0,-5.8 -2.76,-8.04 -7.24,-8.04 -2.48,0 -4.88,0.6 -7.28,1.76 l 0.44,4.04 c 2.12,-1.04 3.68,-1.52 5.48,-1.52 2.56,0 3.48,1 3.6,3.28 -3.76,0.12 -11.24,1.52 -11.24,7.16 0,3.8 2.6,6 5.8,6 2.4,0 4.8,-0.84 6.12,-2.32 0.76,1.4 2.24,2.32 4.48,2.32 h 1.8 z m -7.36,-1.16 c -1.04,1 -2.52,1.44 -3.4,1.44 -1.88,0 -2.68,-0.76 -2.68,-2.4 0,-2.36 3.28,-3.48 6.08,-3.6 z" />
          <path
             inkscape:connector-curvature="0"
             id="path25018"
             d="m 368.08031,458.90434 v -20 h -4.96 v 14.56 c -0.92,1.08 -2.12,1.68 -3.76,1.68 -2.8,0 -3.96,-1.76 -3.96,-5.48 v -10.76 h -4.96 v 10.76 c 0,5.64 2.24,9.64 8.48,9.64 1.56,0 3.28,-0.72 4.44,-1.6 l 0.08,1.2 z" />
          <path
             inkscape:connector-curvature="0"
             id="path25020"
             d="m 378.42969,459.30434 c 6.84,0 7.84,-3.44 7.84,-5.88 0,-4.12 -2.8,-5.36 -5.48,-6.12 -2.52,-0.72 -4.56,-1.04 -4.56,-2.96 0,-1.6 1.6,-2.2 3.32,-2.2 2.16,0 4.48,1.16 5.48,2.16 l 0.44,-4.24 c -1.08,-0.72 -3.68,-1.48 -6.28,-1.48 -5.64,0 -7.32,3.56 -7.32,6.36 0,3.84 2.96,4.76 5.76,5.6 1.96,0.6 3.68,1.16 3.68,2.84 0,1 -0.64,2.2 -3.04,2.2 -2.24,0 -4.92,-1.04 -6.16,-2 l -0.44,4.24 c 1.16,0.76 3.64,1.48 6.76,1.48 z" />
          <path
             inkscape:connector-curvature="0"
             id="path25022"
             d="m 407.14281,458.90434 v -20 h -4.96 v 14.56 c -0.92,1.08 -2.12,1.68 -3.76,1.68 -2.8,0 -3.96,-1.76 -3.96,-5.48 v -10.76 h -4.96 v 10.76 c 0,5.64 2.24,9.64 8.48,9.64 1.56,0 3.28,-0.72 4.44,-1.6 l 0.08,1.2 z" />
          <path
             inkscape:connector-curvature="0"
             id="path25024"
             d="m 423.21219,438.58434 h -1.32 c -2.28,0 -4.28,1.36 -5.32,2.44 l -0.12,-2.12 h -4.64 v 20 h 4.96 v -13.64 c 0.56,-1.12 2,-2 3.64,-2 h 1.84 z" />
          <path
             inkscape:connector-curvature="0"
             id="path25026"
             d="m 442.40969,455.22434 h -0.64 c -1.44,0 -1.76,-0.2 -1.76,-3.2 v -5.4 c 0,-5.8 -2.76,-8.04 -7.24,-8.04 -2.48,0 -4.88,0.6 -7.28,1.76 l 0.44,4.04 c 2.12,-1.04 3.68,-1.52 5.48,-1.52 2.56,0 3.48,1 3.6,3.28 -3.76,0.12 -11.24,1.52 -11.24,7.16 0,3.8 2.6,6 5.8,6 2.4,0 4.8,-0.84 6.12,-2.32 0.76,1.4 2.24,2.32 4.48,2.32 h 1.8 z m -7.36,-1.16 c -1.04,1 -2.52,1.44 -3.4,1.44 -1.88,0 -2.68,-0.76 -2.68,-2.4 0,-2.36 3.28,-3.48 6.08,-3.6 z" />
        </g>
        <g
           id="g25038"
           style="font-style:normal;font-variant:normal;font-weight:bold;font-stretch:normal;font-size:40px;line-height:33.70000076px;font-family:Cabin;-inkscape-font-specification:'Cabin Bold';letter-spacing:0px;word-spacing:0px;fill:#ffffff;fill-opacity:1;stroke:none;stroke-width:1px;stroke-linecap:butt;stroke-linejoin:miter;stroke-opacity:1"
           transform="matrix(0.43819909,0,0,0.43819909,-38.993042,-54.744758)"
           aria-label="    NoSe ">
          <path
             inkscape:connector-curvature="0"
             id="path25030"
             d="m 318.83281,425.20433 v -28 h -5.12 v 18.08 l -11.96,-18.08 h -5.04 v 28 h 5.12 v -19.2 l 12.8,19.2 z" />
          <path
             inkscape:connector-curvature="0"
             id="path25032"
             d="m 332.60719,425.60433 c 6.4,0 10.12,-4.76 10.12,-10.36 0,-5.6 -3.72,-10.36 -10.12,-10.36 -6.4,0 -10.12,4.76 -10.12,10.36 0,5.6 3.72,10.36 10.12,10.36 z m 0,-16.64 c 3.2,0 5.04,2.56 5.04,6.28 0,3.72 -1.84,6.28 -5.04,6.28 -3.2,0 -5.04,-2.56 -5.04,-6.28 0,-3.72 1.84,-6.28 5.04,-6.28 z" />
          <path
             inkscape:connector-curvature="0"
             id="path25034"
             d="m 354.44219,425.76433 c 9.44,0 10.84,-4.96 10.84,-8.16 0,-6.16 -5.32,-7.76 -9.68,-9.08 -3.04,-0.92 -5.64,-1.8 -5.64,-4.04 0,-2.4 2.96,-2.96 5.12,-2.96 2.68,0 5.2,0.88 8.2,2.52 l 0.52,-5.24 c -1.44,-0.96 -5.08,-2.16 -8.92,-2.16 -7.56,0 -10.12,4.68 -10.12,8.4 0,5 4.32,6.4 8.28,7.76 3.4,1.16 6.52,2.16 6.52,5 0,2.28 -2,3.04 -5,3.04 -4.2,0 -7.28,-1.48 -8.8,-2.96 l -0.6,5.84 c 1.6,1.04 5.04,2.04 9.28,2.04 z" />
          <path
             inkscape:connector-curvature="0"
             id="path25036"
             d="m 385.64531,416.28433 c 0.2,-0.96 0.32,-1.84 0.32,-2.72 0,-5.28 -3.76,-8.68 -8.8,-8.68 -6.16,0 -9.6,4.8 -9.6,10.36 0,5.6 3.6,10.36 10.84,10.36 2.84,0 5.16,-0.72 6.68,-1.52 l -0.24,-4.2 c -1.64,0.88 -4.28,1.64 -6.16,1.64 -2.64,0 -5.4,-1.52 -5.96,-5.24 z m -8.32,-7.32 c 2.68,0 3.6,2.16 3.6,3.96 h -8.08 c 0.48,-2.28 1.92,-3.96 4.48,-3.96 z" />
        </g>
        <g
           id="g25042"
           style="font-style:normal;font-variant:normal;font-weight:bold;font-stretch:normal;font-size:40px;line-height:33.70000076px;font-family:Cabin;-inkscape-font-specification:'Cabin Bold';letter-spacing:0px;word-spacing:0px;fill:#ffffff;fill-opacity:1;stroke:none;stroke-width:1px;stroke-linecap:butt;stroke-linejoin:miter;stroke-opacity:1"
           transform="matrix(0.52337483,0,0,0.52337483,-71.615476,-87.0388)"
           aria-label="#  ">
          <path
             inkscape:connector-curvature="0"
             id="path25040"
             style="font-style:normal;font-variant:normal;font-weight:bold;font-stretch:normal;font-family:'Liberation Sans';-inkscape-font-specification:'Liberation Sans Bold'"
             d="m 284.43359,374.66838 -1.34765,6.48437 h 4.19922 v 2.91016 h -4.80469 l -1.60156,7.4414 h -3.04688 l 1.5625,-7.4414 h -5.99609 l -1.5625,7.4414 h -2.98828 l 1.54296,-7.4414 h -3.02734 v -2.91016 h 3.67188 l 1.36718,-6.48437 h -4.04297 v -2.89063 h 4.64844 l 1.64063,-7.51953 h 2.98828 l -1.60156,7.51953 h 5.99609 l 1.64062,-7.51953 h 3.04688 l -1.64063,7.51953 h 3.20313 v 2.89063 z m -8.98437,0 -1.40625,6.48437 h 6.03515 l 1.36719,-6.48437 z" />
        </g>
      </g>
    </g>
  </g>
</svg>
