<?xml version="1.0" encoding="UTF-8" standalone="no"?>
<!-- Created with Inkscape (http://www.inkscape.org/) -->

<svg
   xmlns:dc="http://purl.org/dc/elements/1.1/"
   xmlns:cc="http://creativecommons.org/ns#"
   xmlns:rdf="http://www.w3.org/1999/02/22-rdf-syntax-ns#"
   xmlns:svg="http://www.w3.org/2000/svg"
   xmlns="http://www.w3.org/2000/svg"
   xmlns:sodipodi="http://sodipodi.sourceforge.net/DTD/sodipodi-0.dtd"
   xmlns:inkscape="http://www.inkscape.org/namespaces/inkscape"
   width="210mm"
   height="297mm"
   viewBox="0 0 210 297"
   version="1.1"
   id="svg2120"
   inkscape:version="0.92.1 r15371"
   sodipodi:docname="7x15.svg">
  <defs
     id="defs2114">
    <clipPath
       clipPathUnits="userSpaceOnUse"
       id="clipPath16247">
      <rect
         y="-659.05029"
         x="-1797.0374"
         height="288.37784"
         width="612.06366"
         id="rect16249"
         style="opacity:1;fill:#ffffff;fill-opacity:0.94117647;stroke:#000000;stroke-width:2.93943501;stroke-miterlimit:4;stroke-dasharray:none;stroke-opacity:1"
         clip-path="none" />
    </clipPath>
    <clipPath
       clipPathUnits="userSpaceOnUse"
       id="clipPath4855">
      <rect
         y="147.03845"
         x="-1108.8845"
         height="373.16339"
         width="611.33636"
         id="rect4857"
         style="opacity:0.44299999;fill:#ffffff;fill-opacity:1;stroke:#000000;stroke-width:2.48582125;stroke-miterlimit:4;stroke-dasharray:none;stroke-opacity:1" />
    </clipPath>
    <clipPath
       clipPathUnits="userSpaceOnUse"
       id="clipPath14683">
      <rect
         style="opacity:0.5;fill:#ffffff;fill-opacity:1;stroke:#000000;stroke-width:0.63449305;stroke-miterlimit:4;stroke-dasharray:none;stroke-opacity:1"
         id="rect14685"
         width="149.37224"
         height="99.500053"
         x="-176.32446"
         y="347.32764"
         transform="rotate(90)" />
    </clipPath>
  </defs>
  <sodipodi:namedview
     id="base"
     pagecolor="#ffffff"
     bordercolor="#666666"
     borderopacity="1.0"
     inkscape:pageopacity="0.0"
     inkscape:pageshadow="2"
     inkscape:zoom="0.70710678"
     inkscape:cx="642.81183"
     inkscape:cy="234.02244"
     inkscape:document-units="mm"
     inkscape:current-layer="g4893"
     showgrid="false"
     inkscape:snap-text-baseline="true"
     inkscape:window-width="3200"
     inkscape:window-height="1690"
     inkscape:window-x="0"
     inkscape:window-y="54"
     inkscape:window-maximized="1"
     showguides="true"
     inkscape:guide-bbox="true">
    <sodipodi:guide
       position="-817.59339,48.806496"
       orientation="0,1"
       id="guide4780"
       inkscape:locked="false" />
    <sodipodi:guide
       position="-994.23619,45.952404"
       orientation="1,0"
       id="guide4782"
       inkscape:locked="false" />
    <sodipodi:guide
       position="28.437477,228.24818"
       orientation="1,0"
       id="guide4972"
       inkscape:locked="false" />
    <sodipodi:guide
       position="177.82693,171.69108"
       orientation="1,0"
       id="guide4974"
       inkscape:locked="false" />
  </sodipodi:namedview>
  <metadata
     id="metadata2117">
    <rdf:RDF>
      <cc:Work
         rdf:about="">
        <dc:format>image/svg+xml</dc:format>
        <dc:type
           rdf:resource="http://purl.org/dc/dcmitype/StillImage" />
        <dc:title />
      </cc:Work>
    </rdf:RDF>
  </metadata>
  <g
     inkscape:label="Capa 1"
     inkscape:groupmode="layer"
     id="layer1">
    <rect
       y="54.76733"
       x="8.8890228"
       height="89.370438"
       width="189.68306"
       id="rect22047"
       style="opacity:1;fill:#ffffff;fill-opacity:1;stroke:#000000;stroke-width:0.91095275;stroke-miterlimit:4;stroke-dasharray:none;stroke-opacity:1" />
    <rect
       inkscape:export-ydpi="100"
       inkscape:export-xdpi="100"
       style="opacity:0.419;fill:#000000;fill-opacity:1;stroke:none;stroke-width:2.04323411;stroke-miterlimit:4;stroke-dasharray:none;stroke-opacity:1"
       id="rect22061"
       width="189.68306"
       height="36.855141"
       x="8.8890228"
       y="107.28262"
       ry="0" />
    <flowRoot
       inkscape:export-ydpi="100"
       inkscape:export-xdpi="100"
       transform="matrix(0.06679183,0,0,0.06679183,-69.916702,246.25144)"
       style="font-style:normal;font-variant:normal;font-weight:bold;font-stretch:normal;font-size:192px;line-height:125%;font-family:Cabin;-inkscape-font-specification:'Cabin Bold';letter-spacing:0px;word-spacing:0px;fill:#ffffff;fill-opacity:1;stroke:none;stroke-width:1px;stroke-linecap:butt;stroke-linejoin:miter;stroke-opacity:1"
       id="flowRoot22069"
       xml:space="preserve"><flowRegion
         style="font-style:normal;font-variant:normal;font-weight:bold;font-stretch:normal;font-size:192px;font-family:Cabin;-inkscape-font-specification:'Cabin Bold';fill:#ffffff"
         id="flowRegion22065"><rect
           style="font-style:normal;font-variant:normal;font-weight:bold;font-stretch:normal;font-size:192px;font-family:Cabin;-inkscape-font-specification:'Cabin Bold';fill:#ffffff"
           y="-1846.0518"
           x="1982.8572"
           height="254.28575"
           width="1968.5715"
           id="rect22063" /></flowRegion><flowPara
         id="flowPara22067">#ElTangoNoSeClausura</flowPara></flowRoot>    <text
       inkscape:export-ydpi="100"
       inkscape:export-xdpi="100"
       xml:space="preserve"
       style="font-style:normal;font-variant:normal;font-weight:normal;font-stretch:normal;font-size:5.84455681px;line-height:125%;font-family:Cabin;-inkscape-font-specification:Cabin;letter-spacing:0px;word-spacing:0px;fill:#ffffff;fill-opacity:1;stroke:none;stroke-width:0.14611392px;stroke-linecap:butt;stroke-linejoin:miter;stroke-opacity:1"
       x="88.374229"
       y="119.31362"
       id="text22073"><tspan
         sodipodi:role="line"
         id="tspan22071"
         x="88.374229"
         y="119.31362"
         style="font-style:normal;font-variant:normal;font-weight:normal;font-stretch:normal;font-family:Cabin;-inkscape-font-specification:Cabin;fill:#ffffff;stroke-width:0.14611392px">EL TANGO VIVE EN LAS MILONGAS</tspan></text>
    <g
       id="g22081"
       transform="matrix(0.11937331,0,0,0.11937331,32.42025,160.40832)">
      <path
         transform="matrix(4.2159663,0,0,4.2159663,-341.23141,-929.18158)"
         clip-path="none"
         sodipodi:nodetypes="ccccccccc"
         inkscape:connector-curvature="0"
         id="path22075"
         d="m 46.007192,93.189481 30.0491,-21.695833 30.049108,22.666831 30.04911,-22.666831 c 10.01637,7.231944 20.03273,14.463889 30.0491,21.695833 V 131.59187 L 106.1054,176.87341 46.007192,131.59187 Z"
         style="display:inline;opacity:1;fill:#b521ae;fill-opacity:1;stroke:none;stroke-width:2.64583325;stroke-miterlimit:4;stroke-dasharray:none;stroke-opacity:1" />
      <path
         style="display:inline;opacity:1;fill:#9f1c97;fill-opacity:1;stroke:none;stroke-width:42.15966034;stroke-miterlimit:4;stroke-dasharray:none;stroke-opacity:1"
         clip-path="none"
         d="m 879.8418,-2372.6621 -478.81446,361.1816 v 1317.97855 z m -478.81446,1679.16015 -957.625,-1333.45115 v 611.9179 z"
         transform="matrix(0.26458333,0,0,0.26458333,-2.3075814e-7,-9.420819e-6)"
         id="path22077"
         inkscape:connector-curvature="0" />
      <path
         style="display:inline;opacity:1;fill:#d92ed1;fill-opacity:1;stroke:none;stroke-width:42.15966034;stroke-miterlimit:4;stroke-dasharray:none;stroke-opacity:1"
         clip-path="none"
         d="M -77.785156,-2372.6621 401.02734,-693.50195 V -2011.4805 Z M 401.02734,-693.50195 1358.6543,-1415.0352 v -611.9179 z"
         transform="matrix(0.26458333,0,0,0.26458333,-2.3075814e-7,-9.420819e-6)"
         id="path22079"
         inkscape:connector-curvature="0" />
    </g>
    <g
       style="display:inline"
       transform="matrix(0.30990745,0,0,0.30990745,566.50877,360.21879)"
       id="g14152"
       clip-path="url(#clipPath16247)"
       inkscape:export-filename="/home/xaiki/banner-horiz-etnsc.png"
       inkscape:export-xdpi="100"
       inkscape:export-ydpi="100">
      <g
         id="g13557"
         transform="matrix(0.52205776,0,0,0.52205776,-1752.4843,-301.28383)">
        <path
           style="display:inline;opacity:1;fill:#b521ae;fill-opacity:1;stroke:none;stroke-width:2.64583325;stroke-miterlimit:4;stroke-dasharray:none;stroke-opacity:1"
           d="m 46.007192,93.189481 30.0491,-21.695833 30.049108,22.666831 30.04911,-22.666831 c 10.01637,7.231944 20.03273,14.463889 30.0491,21.695833 V 131.59187 L 106.1054,176.87341 46.007192,131.59187 Z"
           id="path13501"
           inkscape:connector-curvature="0"
           sodipodi:nodetypes="ccccccccc"
           clip-path="none"
           transform="matrix(4.2159663,0,0,4.2159663,-341.23141,-929.18158)" />
        <path
           id="path13503"
           transform="matrix(0.26458333,0,0,0.26458333,-2.3075814e-7,-9.420819e-6)"
           d="m 879.8418,-2372.6621 -478.81446,361.1816 v 1317.97855 z m -478.81446,1679.16015 -957.625,-1333.45115 v 611.9179 z"
           clip-path="none"
           style="display:inline;opacity:1;fill:#9f1c97;fill-opacity:1;stroke:none;stroke-width:42.15966034;stroke-miterlimit:4;stroke-dasharray:none;stroke-opacity:1"
           inkscape:connector-curvature="0" />
        <path
           id="path13505"
           transform="matrix(0.26458333,0,0,0.26458333,-2.3075814e-7,-9.420819e-6)"
           d="M -77.785156,-2372.6621 401.02734,-693.50195 V -2011.4805 Z M 401.02734,-693.50195 1358.6543,-1415.0352 v -611.9179 z"
           clip-path="none"
           style="display:inline;opacity:1;fill:#d92ed1;fill-opacity:1;stroke:none;stroke-width:42.15966034;stroke-miterlimit:4;stroke-dasharray:none;stroke-opacity:1"
           inkscape:connector-curvature="0" />
        <g
           transform="matrix(4.2159663,0,0,4.2159663,-341.2314,-931.41253)"
           style="display:inline;fill:#ffffff"
           id="g13555">
          <g
             id="g13521"
             style="font-style:normal;font-variant:normal;font-weight:bold;font-stretch:normal;font-size:40px;line-height:33.70000076px;font-family:Cabin;-inkscape-font-specification:'Cabin Bold';letter-spacing:0px;word-spacing:0px;fill:#ffffff;fill-opacity:1;stroke:none;stroke-width:1px;stroke-linecap:butt;stroke-linejoin:miter;stroke-opacity:1"
             transform="matrix(0.43819909,0,0,0.43819909,-36.494583,-54.744758)"
             aria-label="ElTango  ">
            <path
               inkscape:connector-curvature="0"
               id="path13507"
               d="m 288.07969,391.50431 v -4.96 h -13.08 v -7.16 h 9.84 v -4.96 h -9.84 v -5.96 h 12.68 v -4.96 h -17.92 v 28 z" />
            <path
               inkscape:connector-curvature="0"
               id="path13509"
               d="m 299.09406,387.82431 c -1.96,0 -2.4,0 -2.4,-3.2 v -23.12 h -4.96 v 25.16 c 0,2.88 1.56,5.24 5.12,5.24 h 1.8 z" />
            <path
               inkscape:connector-curvature="0"
               id="path13511"
               d="m 320.73969,368.46431 v -4.96 h -20.96 v 4.96 h 7.92 v 23.04 h 5.12 v -23.04 z" />
            <path
               inkscape:connector-curvature="0"
               id="path13513"
               d="m 338.73781,387.82431 h -0.64 c -1.44,0 -1.76,-0.2 -1.76,-3.2 v -5.4 c 0,-5.8 -2.76,-8.04 -7.24,-8.04 -2.48,0 -4.88,0.6 -7.28,1.76 l 0.44,4.04 c 2.12,-1.04 3.68,-1.52 5.48,-1.52 2.56,0 3.48,1 3.6,3.28 -3.76,0.12 -11.24,1.52 -11.24,7.16 0,3.8 2.6,6 5.8,6 2.4,0 4.8,-0.84 6.12,-2.32 0.76,1.4 2.24,2.32 4.48,2.32 h 1.8 z m -7.36,-1.16 c -1.04,1 -2.52,1.44 -3.4,1.44 -1.88,0 -2.68,-0.76 -2.68,-2.4 0,-2.36 3.28,-3.48 6.08,-3.6 z" />
            <path
               inkscape:connector-curvature="0"
               id="path13515"
               d="m 359.13969,391.50431 v -10.76 c 0,-5.64 -2.28,-9.56 -8.52,-9.56 -1.56,0 -3.24,0.68 -4.4,1.52 l -0.08,-1.2 h -4.64 v 20 h 4.96 v -14.52 c 0.92,-1.08 2.08,-1.72 3.76,-1.72 2.8,0 3.96,1.76 3.96,5.48 v 10.76 z" />
            <path
               inkscape:connector-curvature="0"
               id="path13517"
               d="m 371.68906,401.50431 c 6.16,0 9.56,-2.56 9.56,-6.44 0,-4.84 -5.2,-5.68 -8.04,-6.04 -3.28,-0.4 -5,-0.68 -5,-1.64 0,-0.28 0.16,-0.52 0.44,-0.64 0.68,0.12 1.36,0.2 2.12,0.2 5.24,0 8.08,-3.6 8.08,-7.88 0,-1.6 -0.4,-3.16 -1.2,-4.4 0.44,-0.04 0.88,-0.04 1.12,-0.04 h 1.8 l 0.32,-3.12 h -1.28 c -1.88,0 -3.48,0.44 -4.28,0.88 -1.2,-0.76 -2.76,-1.2 -4.56,-1.2 -5.24,0 -8.12,3.6 -8.12,7.88 0,2.64 1.08,5 3.08,6.44 -1.32,0.64 -2,1.48 -2,2.72 0,1.32 0.72,2.2 1.8,2.88 -2.12,1.12 -3.28,2.56 -3.28,4.48 0,2.96 2.8,5.92 9.44,5.92 z m -0.92,-26.68 c 2.4,0 3.64,1.68 3.64,4.24 0,2.56 -1.24,4.24 -3.64,4.24 -2.44,0 -3.68,-1.68 -3.68,-4.24 0,-2.56 1.24,-4.24 3.68,-4.24 z m 0.76,17.88 c 2.52,0.28 5.32,0.64 5.32,2.56 0,1.72 -2.32,2.72 -5.4,2.72 -3.24,0 -5.08,-1.12 -5.08,-2.88 0,-1.52 1.32,-2.28 2.76,-2.76 0.88,0.16 1.68,0.28 2.4,0.36 z" />
            <path
               inkscape:connector-curvature="0"
               id="path13519"
               d="m 392.45094,391.90431 c 6.4,0 10.12,-4.76 10.12,-10.36 0,-5.6 -3.72,-10.36 -10.12,-10.36 -6.4,0 -10.12,4.76 -10.12,10.36 0,5.6 3.72,10.36 10.12,10.36 z m 0,-16.64 c 3.2,0 5.04,2.56 5.04,6.28 0,3.72 -1.84,6.28 -5.04,6.28 -3.2,0 -5.04,-2.56 -5.04,-6.28 0,-3.72 1.84,-6.28 5.04,-6.28 z" />
          </g>
          <g
             id="g13539"
             style="font-style:normal;font-variant:normal;font-weight:bold;font-stretch:normal;font-size:40px;line-height:33.70000076px;font-family:Cabin;-inkscape-font-specification:'Cabin Bold';letter-spacing:0px;word-spacing:0px;fill:#ffffff;fill-opacity:1;stroke:none;stroke-width:1px;stroke-linecap:butt;stroke-linejoin:miter;stroke-opacity:1"
             transform="matrix(0.43123632,0,0,0.43123632,-52.572895,-54.933394)"
             aria-label="     Clausura">
            <path
               inkscape:connector-curvature="0"
               id="path13523"
               d="m 308.83281,459.46434 c 2.92,0 5.92,-0.64 7.96,-1.64 l -0.56,-4.88 c -2.32,0.92 -4.48,1.6 -7.4,1.6 -5.44,0 -8.2,-4.04 -8.2,-9.64 0,-5.6 2.76,-9.64 8.2,-9.64 2.92,0 5.08,0.68 7.4,1.6 l 0.56,-4.88 c -2.04,-1 -5.04,-1.64 -7.96,-1.64 -8,0 -13.8,5.76 -13.8,14.56 0,8.8 5.8,14.56 13.8,14.56 z" />
            <path
               inkscape:connector-curvature="0"
               id="path13525"
               d="m 327.68781,455.22434 c -1.96,0 -2.4,0 -2.4,-3.2 v -23.12 h -4.96 v 25.16 c 0,2.88 1.56,5.24 5.12,5.24 h 1.8 z" />
            <path
               inkscape:connector-curvature="0"
               id="path13527"
               d="m 348.03469,455.22434 h -0.64 c -1.44,0 -1.76,-0.2 -1.76,-3.2 v -5.4 c 0,-5.8 -2.76,-8.04 -7.24,-8.04 -2.48,0 -4.88,0.6 -7.28,1.76 l 0.44,4.04 c 2.12,-1.04 3.68,-1.52 5.48,-1.52 2.56,0 3.48,1 3.6,3.28 -3.76,0.12 -11.24,1.52 -11.24,7.16 0,3.8 2.6,6 5.8,6 2.4,0 4.8,-0.84 6.12,-2.32 0.76,1.4 2.24,2.32 4.48,2.32 h 1.8 z m -7.36,-1.16 c -1.04,1 -2.52,1.44 -3.4,1.44 -1.88,0 -2.68,-0.76 -2.68,-2.4 0,-2.36 3.28,-3.48 6.08,-3.6 z" />
            <path
               inkscape:connector-curvature="0"
               id="path13529"
               d="m 368.08031,458.90434 v -20 h -4.96 v 14.56 c -0.92,1.08 -2.12,1.68 -3.76,1.68 -2.8,0 -3.96,-1.76 -3.96,-5.48 v -10.76 h -4.96 v 10.76 c 0,5.64 2.24,9.64 8.48,9.64 1.56,0 3.28,-0.72 4.44,-1.6 l 0.08,1.2 z" />
            <path
               inkscape:connector-curvature="0"
               id="path13531"
               d="m 378.42969,459.30434 c 6.84,0 7.84,-3.44 7.84,-5.88 0,-4.12 -2.8,-5.36 -5.48,-6.12 -2.52,-0.72 -4.56,-1.04 -4.56,-2.96 0,-1.6 1.6,-2.2 3.32,-2.2 2.16,0 4.48,1.16 5.48,2.16 l 0.44,-4.24 c -1.08,-0.72 -3.68,-1.48 -6.28,-1.48 -5.64,0 -7.32,3.56 -7.32,6.36 0,3.84 2.96,4.76 5.76,5.6 1.96,0.6 3.68,1.16 3.68,2.84 0,1 -0.64,2.2 -3.04,2.2 -2.24,0 -4.92,-1.04 -6.16,-2 l -0.44,4.24 c 1.16,0.76 3.64,1.48 6.76,1.48 z" />
            <path
               inkscape:connector-curvature="0"
               id="path13533"
               d="m 407.14281,458.90434 v -20 h -4.96 v 14.56 c -0.92,1.08 -2.12,1.68 -3.76,1.68 -2.8,0 -3.96,-1.76 -3.96,-5.48 v -10.76 h -4.96 v 10.76 c 0,5.64 2.24,9.64 8.48,9.64 1.56,0 3.28,-0.72 4.44,-1.6 l 0.08,1.2 z" />
            <path
               inkscape:connector-curvature="0"
               id="path13535"
               d="m 423.21219,438.58434 h -1.32 c -2.28,0 -4.28,1.36 -5.32,2.44 l -0.12,-2.12 h -4.64 v 20 h 4.96 v -13.64 c 0.56,-1.12 2,-2 3.64,-2 h 1.84 z" />
            <path
               inkscape:connector-curvature="0"
               id="path13537"
               d="m 442.40969,455.22434 h -0.64 c -1.44,0 -1.76,-0.2 -1.76,-3.2 v -5.4 c 0,-5.8 -2.76,-8.04 -7.24,-8.04 -2.48,0 -4.88,0.6 -7.28,1.76 l 0.44,4.04 c 2.12,-1.04 3.68,-1.52 5.48,-1.52 2.56,0 3.48,1 3.6,3.28 -3.76,0.12 -11.24,1.52 -11.24,7.16 0,3.8 2.6,6 5.8,6 2.4,0 4.8,-0.84 6.12,-2.32 0.76,1.4 2.24,2.32 4.48,2.32 h 1.8 z m -7.36,-1.16 c -1.04,1 -2.52,1.44 -3.4,1.44 -1.88,0 -2.68,-0.76 -2.68,-2.4 0,-2.36 3.28,-3.48 6.08,-3.6 z" />
          </g>
          <g
             id="g13549"
             style="font-style:normal;font-variant:normal;font-weight:bold;font-stretch:normal;font-size:40px;line-height:33.70000076px;font-family:Cabin;-inkscape-font-specification:'Cabin Bold';letter-spacing:0px;word-spacing:0px;fill:#ffffff;fill-opacity:1;stroke:none;stroke-width:1px;stroke-linecap:butt;stroke-linejoin:miter;stroke-opacity:1"
             transform="matrix(0.43819909,0,0,0.43819909,-38.993042,-54.744758)"
             aria-label="    NoSe ">
            <path
               inkscape:connector-curvature="0"
               id="path13541"
               d="m 318.83281,425.20433 v -28 h -5.12 v 18.08 l -11.96,-18.08 h -5.04 v 28 h 5.12 v -19.2 l 12.8,19.2 z" />
            <path
               inkscape:connector-curvature="0"
               id="path13543"
               d="m 332.60719,425.60433 c 6.4,0 10.12,-4.76 10.12,-10.36 0,-5.6 -3.72,-10.36 -10.12,-10.36 -6.4,0 -10.12,4.76 -10.12,10.36 0,5.6 3.72,10.36 10.12,10.36 z m 0,-16.64 c 3.2,0 5.04,2.56 5.04,6.28 0,3.72 -1.84,6.28 -5.04,6.28 -3.2,0 -5.04,-2.56 -5.04,-6.28 0,-3.72 1.84,-6.28 5.04,-6.28 z" />
            <path
               inkscape:connector-curvature="0"
               id="path13545"
               d="m 354.44219,425.76433 c 9.44,0 10.84,-4.96 10.84,-8.16 0,-6.16 -5.32,-7.76 -9.68,-9.08 -3.04,-0.92 -5.64,-1.8 -5.64,-4.04 0,-2.4 2.96,-2.96 5.12,-2.96 2.68,0 5.2,0.88 8.2,2.52 l 0.52,-5.24 c -1.44,-0.96 -5.08,-2.16 -8.92,-2.16 -7.56,0 -10.12,4.68 -10.12,8.4 0,5 4.32,6.4 8.28,7.76 3.4,1.16 6.52,2.16 6.52,5 0,2.28 -2,3.04 -5,3.04 -4.2,0 -7.28,-1.48 -8.8,-2.96 l -0.6,5.84 c 1.6,1.04 5.04,2.04 9.28,2.04 z" />
            <path
               inkscape:connector-curvature="0"
               id="path13547"
               d="m 385.64531,416.28433 c 0.2,-0.96 0.32,-1.84 0.32,-2.72 0,-5.28 -3.76,-8.68 -8.8,-8.68 -6.16,0 -9.6,4.8 -9.6,10.36 0,5.6 3.6,10.36 10.84,10.36 2.84,0 5.16,-0.72 6.68,-1.52 l -0.24,-4.2 c -1.64,0.88 -4.28,1.64 -6.16,1.64 -2.64,0 -5.4,-1.52 -5.96,-5.24 z m -8.32,-7.32 c 2.68,0 3.6,2.16 3.6,3.96 h -8.08 c 0.48,-2.28 1.92,-3.96 4.48,-3.96 z" />
          </g>
          <g
             id="g13553"
             style="font-style:normal;font-variant:normal;font-weight:bold;font-stretch:normal;font-size:40px;line-height:33.70000076px;font-family:Cabin;-inkscape-font-specification:'Cabin Bold';letter-spacing:0px;word-spacing:0px;fill:#ffffff;fill-opacity:1;stroke:none;stroke-width:1px;stroke-linecap:butt;stroke-linejoin:miter;stroke-opacity:1"
             transform="matrix(0.52337483,0,0,0.52337483,-71.615476,-87.0388)"
             aria-label="#  ">
            <path
               inkscape:connector-curvature="0"
               id="path13551"
               style="font-style:normal;font-variant:normal;font-weight:bold;font-stretch:normal;font-family:'Liberation Sans';-inkscape-font-specification:'Liberation Sans Bold'"
               d="m 284.43359,374.66838 -1.34765,6.48437 h 4.19922 v 2.91016 h -4.80469 l -1.60156,7.4414 h -3.04688 l 1.5625,-7.4414 h -5.99609 l -1.5625,7.4414 h -2.98828 l 1.54296,-7.4414 h -3.02734 v -2.91016 h 3.67188 l 1.36718,-6.48437 h -4.04297 v -2.89063 h 4.64844 l 1.64063,-7.51953 h 2.98828 l -1.60156,7.51953 h 5.99609 l 1.64062,-7.51953 h 3.04688 l -1.64063,7.51953 h 3.20313 v 2.89063 z m -8.98437,0 -1.40625,6.48437 h 6.03515 l 1.36719,-6.48437 z" />
          </g>
        </g>
      </g>
      <g
         id="g13989"
         transform="matrix(0.48003881,0,0,0.48003881,-883.33562,-415.97744)"
         style="fill:#4a4a4a;fill-opacity:1">
        <path
           style="display:inline;opacity:1;fill:#4a4a4a;fill-opacity:1;stroke:none;stroke-width:11.15474415;stroke-miterlimit:4;stroke-dasharray:none;stroke-opacity:1"
           d="m -147.26664,-951.88084 126.685994,-91.46906 126.686026,95.56276 126.68604,-95.56276 c 42.22867,30.4898 84.45731,60.97944 126.68599,91.46906 v 161.90318 l -253.37203,190.90545 -253.37202,-190.90545 z"
           id="path13975"
           inkscape:connector-curvature="0"
           sodipodi:nodetypes="ccccccccc"
           clip-path="none"
           transform="matrix(0.52205776,0,0,0.52205776,-2059.2266,-90.523216)" />
        <path
           id="path13977"
           d="m 232.79147,-1043.3499 -126.68632,95.56271 v 348.71515 z m -126.68632,444.27786 -253.37161,-352.80894 v 161.90327 z"
           clip-path="none"
           style="display:inline;opacity:1;fill:#4a4a4a;fill-opacity:1;stroke:none;stroke-width:11.15474319;stroke-miterlimit:4;stroke-dasharray:none;stroke-opacity:1"
           inkscape:connector-curvature="0"
           transform="matrix(0.52205776,0,0,0.52205776,-2059.2266,-90.523216)" />
        <path
           id="path13979"
           d="M -20.580656,-1043.3499 106.10515,-599.07204 V -947.78719 Z M 106.10515,-599.07204 359.47728,-789.97771 V -951.88098 Z"
           clip-path="none"
           style="display:inline;opacity:1;fill:#4a4a4a;fill-opacity:1;stroke:none;stroke-width:11.15474319;stroke-miterlimit:4;stroke-dasharray:none;stroke-opacity:1"
           inkscape:connector-curvature="0"
           transform="matrix(0.52205776,0,0,0.52205776,-2059.2266,-90.523216)" />
        <g
           transform="matrix(0.52205776,0,0,0.52205776,-2059.2266,-307.48168)"
           id="g13987"
           style="fill:#4a4a4a;fill-opacity:1">
          <path
             inkscape:connector-curvature="0"
             style="display:inline;opacity:1;fill:#4a4a4a;fill-opacity:1;stroke:none;stroke-width:42.15966034;stroke-miterlimit:4;stroke-dasharray:none;stroke-opacity:1"
             clip-path="none"
             d="m 879.8418,-2372.6621 -478.81446,361.1816 v 1317.97855 z m -478.81446,1679.16015 -957.625,-1333.45115 v 611.9179 z"
             transform="matrix(0.26458333,0,0,0.26458333,-2.3075814e-7,-9.420819e-6)"
             id="path13981" />
          <path
             inkscape:connector-curvature="0"
             style="display:inline;opacity:1;fill:#4a4a4a;fill-opacity:1;stroke:none;stroke-width:42.15966034;stroke-miterlimit:4;stroke-dasharray:none;stroke-opacity:1"
             clip-path="none"
             d="M -77.785156,-2372.6621 401.02734,-693.50195 V -2011.4805 Z M 401.02734,-693.50195 1358.6543,-1415.0352 v -611.9179 z"
             transform="matrix(0.26458333,0,0,0.26458333,-2.3075814e-7,-9.420819e-6)"
             id="path13983" />
          <g
             id="g13985"
             style="display:inline;fill:#4a4a4a;fill-opacity:1"
             transform="matrix(4.2159663,0,0,4.2159663,-341.2314,-931.41253)" />
        </g>
      </g>
      <g
         id="g14021"
         transform="matrix(0.48003881,0,0,0.48003881,-735.16462,-415.97744)"
         style="fill:#4a4a4a;fill-opacity:1">
        <path
           style="display:inline;opacity:1;fill:#4a4a4a;fill-opacity:1;stroke:none;stroke-width:11.15474415;stroke-miterlimit:4;stroke-dasharray:none;stroke-opacity:1"
           d="m -147.26664,-951.88084 126.685994,-91.46906 126.686026,95.56276 126.68604,-95.56276 c 42.22867,30.4898 84.45731,60.97944 126.68599,91.46906 v 161.90318 l -253.37203,190.90545 -253.37202,-190.90545 z"
           id="path14007"
           inkscape:connector-curvature="0"
           sodipodi:nodetypes="ccccccccc"
           clip-path="none"
           transform="matrix(0.52205776,0,0,0.52205776,-2059.2266,-90.523216)" />
      </g>
      <g
         id="g14087"
         transform="matrix(1.1661524,0,0,1.1661524,-1820.8262,257.95655)"
         style="fill:#4a4a4a;fill-opacity:1">
        <path
           style="display:inline;opacity:1;fill:#4a4a4a;fill-opacity:1;stroke:none;stroke-width:2.64583325;stroke-miterlimit:4;stroke-dasharray:none;stroke-opacity:1"
           d="m 46.007192,93.189481 30.0491,-21.695833 30.049108,22.666831 30.04911,-22.666831 c 10.01637,7.231944 20.03273,14.463889 30.0491,21.695833 V 131.59187 L 106.1054,176.87341 46.007192,131.59187 Z"
           id="path14081"
           inkscape:connector-curvature="0"
           sodipodi:nodetypes="ccccccccc"
           clip-path="none"
           transform="matrix(4.2159663,0,0,4.2159663,-341.23141,-929.18158)" />
        <path
           id="path14083"
           transform="matrix(0.26458333,0,0,0.26458333,-2.3075814e-7,-9.420819e-6)"
           d="m 879.8418,-2372.6621 -478.81446,361.1816 v 1317.97855 z m -478.81446,1679.16015 -957.625,-1333.45115 v 611.9179 z"
           clip-path="none"
           style="display:inline;opacity:1;fill:#4a4a4a;fill-opacity:1;stroke:none;stroke-width:42.15966034;stroke-miterlimit:4;stroke-dasharray:none;stroke-opacity:1"
           inkscape:connector-curvature="0" />
        <path
           id="path14085"
           transform="matrix(0.26458333,0,0,0.26458333,-2.3075814e-7,-9.420819e-6)"
           d="M -77.785156,-2372.6621 401.02734,-693.50195 V -2011.4805 Z M 401.02734,-693.50195 1358.6543,-1415.0352 v -611.9179 z"
           clip-path="none"
           style="display:inline;opacity:1;fill:#4a4a4a;fill-opacity:1;stroke:none;stroke-width:42.15966034;stroke-miterlimit:4;stroke-dasharray:none;stroke-opacity:1"
           inkscape:connector-curvature="0" />
      </g>
      <g
         transform="matrix(0.48003881,0,0,0.48003881,-587.43531,-415.97744)"
         id="g18277"
         style="fill:#4a4a4a;fill-opacity:1">
        <path
           transform="matrix(0.52205776,0,0,0.52205776,-2059.2266,-90.523216)"
           clip-path="none"
           sodipodi:nodetypes="ccccccccc"
           inkscape:connector-curvature="0"
           id="path18263"
           d="m -147.26664,-951.88084 126.685994,-91.46906 126.686026,95.56276 126.68604,-95.56276 c 42.22867,30.4898 84.45731,60.97944 126.68599,91.46906 v 161.90318 l -253.37203,190.90545 -253.37202,-190.90545 z"
           style="display:inline;opacity:1;fill:#4a4a4a;fill-opacity:1;stroke:none;stroke-width:11.15474415;stroke-miterlimit:4;stroke-dasharray:none;stroke-opacity:1" />
      </g>
      <g
         transform="matrix(1.1661524,0,0,1.1661524,-1352.9435,41.116159)"
         id="g18421">
        <path
           transform="matrix(4.2159663,0,0,4.2159663,-341.23141,-929.18158)"
           clip-path="none"
           sodipodi:nodetypes="ccccccccc"
           inkscape:connector-curvature="0"
           id="path18415"
           d="m 46.007192,93.189481 30.0491,-21.695833 37.840528,-14.06414 22.25769,14.06414 c 10.01637,7.231944 20.03273,14.463889 30.0491,21.695833 L 189.2996,170.40644 5.5126283,143.48162 46.007192,110.99688 Z"
           style="display:inline;opacity:1;fill:#b521ae;fill-opacity:1;stroke:none;stroke-width:2.64583325;stroke-miterlimit:4;stroke-dasharray:none;stroke-opacity:1" />
      </g>
    </g>
    <flowRoot
       transform="matrix(0.12288737,0,0,0.12288737,1078.3054,285.62102)"
       style="font-style:normal;font-variant:normal;font-weight:bold;font-stretch:normal;font-size:75.12796021px;line-height:125%;font-family:Cabin;-inkscape-font-specification:'Cabin Bold';text-align:center;letter-spacing:0px;word-spacing:0px;text-anchor:middle;display:inline;fill:#ffffff;fill-opacity:1;stroke:none;stroke-width:1px;stroke-linecap:butt;stroke-linejoin:miter;stroke-opacity:1"
       id="flowRoot18441"
       xml:space="preserve"><flowRegion
         style="font-style:normal;font-variant:normal;font-weight:bold;font-stretch:normal;font-size:75.12796021px;font-family:Cabin;-inkscape-font-specification:'Cabin Bold';text-align:center;text-anchor:middle;fill:#ffffff"
         id="flowRegion18437"><rect
           style="font-style:normal;font-variant:normal;font-weight:bold;font-stretch:normal;font-size:75.12796021px;font-family:Cabin;-inkscape-font-specification:'Cabin Bold';text-align:center;text-anchor:middle;fill:#ffffff"
           y="-842.34222"
           x="-8091.5479"
           height="729.0672"
           width="1000.0063"
           id="rect18435" /></flowRegion><flowPara
         id="flowPara18439">NUESTRA CULTURA,</flowPara><flowPara
         id="flowPara18467">NUESTRA IDENTIDAD</flowPara></flowRoot>    <g
       style="display:inline"
       transform="matrix(0.05808101,0,0,0.05808101,103.73715,242.73684)"
       id="g18507">
      <path
         style="display:inline;opacity:1;fill:#4a4a4a;fill-opacity:1;stroke:none;stroke-width:2.64583325;stroke-miterlimit:4;stroke-dasharray:none;stroke-opacity:1"
         d="m 46.007192,93.189481 30.0491,-21.695833 30.049108,22.666831 30.04911,-22.666831 c 10.01637,7.231944 20.03273,14.463889 30.0491,21.695833 V 131.59187 L 106.1054,176.87341 46.007192,131.59187 Z"
         id="path18501"
         inkscape:connector-curvature="0"
         sodipodi:nodetypes="ccccccccc"
         clip-path="none"
         transform="matrix(4.2159663,0,0,4.2159663,-341.23141,-929.18158)" />
      <path
         inkscape:connector-curvature="0"
         id="path18503"
         transform="matrix(0.26458333,0,0,0.26458333,-2.3075814e-7,-9.420819e-6)"
         d="m 879.8418,-2372.6621 -478.81446,361.1816 v 1317.97855 z m -478.81446,1679.16015 -957.625,-1333.45115 v 611.9179 z"
         clip-path="none"
         style="display:inline;opacity:1;fill:#404040;fill-opacity:1;stroke:none;stroke-width:42.15966034;stroke-miterlimit:4;stroke-dasharray:none;stroke-opacity:1" />
      <path
         inkscape:connector-curvature="0"
         id="path18505"
         transform="matrix(0.26458333,0,0,0.26458333,-2.3075814e-7,-9.420819e-6)"
         d="M -77.785156,-2372.6621 401.02734,-693.50195 V -2011.4805 Z M 401.02734,-693.50195 1358.6543,-1415.0352 v -611.9179 z"
         clip-path="none"
         style="display:inline;opacity:1;fill:#5e5e5e;fill-opacity:1;stroke:none;stroke-width:42.15966034;stroke-miterlimit:4;stroke-dasharray:none;stroke-opacity:1" />
    </g>
    <g
       style="display:inline"
       id="g18515"
       transform="matrix(0.05808101,0,0,0.05808101,139.56244,242.73684)">
      <path
         transform="matrix(4.2159663,0,0,4.2159663,-341.23141,-929.18158)"
         clip-path="none"
         sodipodi:nodetypes="ccccccccc"
         inkscape:connector-curvature="0"
         id="path18509"
         d="m 46.007192,93.189481 30.0491,-21.695833 30.049108,22.666831 30.04911,-22.666831 c 10.01637,7.231944 20.03273,14.463889 30.0491,21.695833 V 131.59187 L 106.1054,176.87341 46.007192,131.59187 Z"
         style="display:inline;opacity:1;fill:#4a4a4a;fill-opacity:1;stroke:none;stroke-width:2.64583325;stroke-miterlimit:4;stroke-dasharray:none;stroke-opacity:1" />
      <path
         style="display:inline;opacity:1;fill:#404040;fill-opacity:1;stroke:none;stroke-width:42.15966034;stroke-miterlimit:4;stroke-dasharray:none;stroke-opacity:1"
         clip-path="none"
         d="m 879.8418,-2372.6621 -478.81446,361.1816 v 1317.97855 z m -478.81446,1679.16015 -957.625,-1333.45115 v 611.9179 z"
         transform="matrix(0.26458333,0,0,0.26458333,-2.3075814e-7,-9.420819e-6)"
         id="path18511"
         inkscape:connector-curvature="0" />
      <path
         style="display:inline;opacity:1;fill:#5e5e5e;fill-opacity:1;stroke:none;stroke-width:42.15966034;stroke-miterlimit:4;stroke-dasharray:none;stroke-opacity:1"
         clip-path="none"
         d="M -77.785156,-2372.6621 401.02734,-693.50195 V -2011.4805 Z M 401.02734,-693.50195 1358.6543,-1415.0352 v -611.9179 z"
         transform="matrix(0.26458333,0,0,0.26458333,-2.3075814e-7,-9.420819e-6)"
         id="path18513"
         inkscape:connector-curvature="0" />
    </g>
    <g
       style="display:inline"
       transform="matrix(0.05808101,0,0,0.05808101,175.38771,242.73684)"
       id="g18523">
      <path
         style="display:inline;opacity:1;fill:#4a4a4a;fill-opacity:1;stroke:none;stroke-width:2.64583325;stroke-miterlimit:4;stroke-dasharray:none;stroke-opacity:1"
         d="m 46.007192,93.189481 30.0491,-21.695833 30.049108,22.666831 30.04911,-22.666831 c 10.01637,7.231944 20.03273,14.463889 30.0491,21.695833 V 131.59187 L 106.1054,176.87341 46.007192,131.59187 Z"
         id="path18517"
         inkscape:connector-curvature="0"
         sodipodi:nodetypes="ccccccccc"
         clip-path="none"
         transform="matrix(4.2159663,0,0,4.2159663,-341.23141,-929.18158)" />
      <path
         inkscape:connector-curvature="0"
         id="path18519"
         transform="matrix(0.26458333,0,0,0.26458333,-2.3075814e-7,-9.420819e-6)"
         d="m 879.8418,-2372.6621 -478.81446,361.1816 v 1317.97855 z m -478.81446,1679.16015 -957.625,-1333.45115 v 611.9179 z"
         clip-path="none"
         style="display:inline;opacity:1;fill:#404040;fill-opacity:1;stroke:none;stroke-width:42.15966034;stroke-miterlimit:4;stroke-dasharray:none;stroke-opacity:1" />
      <path
         inkscape:connector-curvature="0"
         id="path18521"
         transform="matrix(0.26458333,0,0,0.26458333,-2.3075814e-7,-9.420819e-6)"
         d="M -77.785156,-2372.6621 401.02734,-693.50195 V -2011.4805 Z M 401.02734,-693.50195 1358.6543,-1415.0352 v -611.9179 z"
         clip-path="none"
         style="display:inline;opacity:1;fill:#5e5e5e;fill-opacity:1;stroke:none;stroke-width:42.15966034;stroke-miterlimit:4;stroke-dasharray:none;stroke-opacity:1" />
    </g>
    <flowRoot
       xml:space="preserve"
       id="flowRoot18531"
       style="font-style:normal;font-variant:normal;font-weight:normal;font-stretch:normal;font-size:51.35280228px;line-height:125%;font-family:Cabin;-inkscape-font-specification:Cabin;text-align:center;letter-spacing:0px;word-spacing:0px;text-anchor:middle;display:inline;fill:#ffffff;fill-opacity:1;stroke:none;stroke-width:1px;stroke-linecap:butt;stroke-linejoin:miter;stroke-opacity:1"
       transform="matrix(0.13519363,0,0,0.13519363,1157.5757,347.58184)"><flowRegion
         id="flowRegion18527"
         style="font-style:normal;font-variant:normal;font-weight:normal;font-stretch:normal;font-size:51.35280228px;font-family:Cabin;-inkscape-font-specification:Cabin;text-align:center;text-anchor:middle;fill:#ffffff"><rect
           id="rect18525"
           width="1000.0063"
           height="729.0672"
           x="-8091.5479"
           y="-842.34222"
           style="font-style:normal;font-variant:normal;font-weight:normal;font-stretch:normal;font-size:51.35280228px;font-family:Cabin;-inkscape-font-specification:Cabin;text-align:center;text-anchor:middle;fill:#ffffff" /></flowRegion><flowPara
         id="flowPara18529">sumate en facebook.com/tangonoclausura</flowPara></flowRoot>    <flowRoot
       xml:space="preserve"
       id="flowRoot2423"
       style="fill:black;fill-opacity:1;stroke:none;font-family:Cabin;font-style:normal;font-weight:normal;font-size:40px;line-height:1.25;letter-spacing:0px;word-spacing:0px;-inkscape-font-specification:Cabin;font-stretch:normal;font-variant:normal"><flowRegion
         id="flowRegion2425"><rect
           id="rect2427"
           width="151.42857"
           height="51.42857"
           x="131.42857"
           y="31.091114" /></flowRegion><flowPara
         id="flowPara2429" /></flowRoot>    <flowRoot
       xml:space="preserve"
       id="flowRoot2435"
       style="font-style:normal;font-variant:normal;font-weight:normal;font-stretch:normal;font-size:40px;line-height:1.25;font-family:Cabin;-inkscape-font-specification:Cabin;letter-spacing:0px;word-spacing:0px;fill:#000000;fill-opacity:1;stroke:none"
       transform="matrix(0.08199634,0,0,0.08199634,131.91412,82.378079)"><flowRegion
         id="flowRegion2437"><rect
           id="rect2439"
           width="2108.5715"
           height="271.42856"
           x="-1380"
           y="-288.90887" /></flowRegion><flowPara
         id="flowPara2441"><flowSpan
           style="font-size:53.33333588px"
           id="flowSpan2461">En Buenos Aires, cuna del tango, las milongas nuevas se ven obligadas a funcionar bajo formatos clandestinos, las milongas en espacios públicos ven constantemente amenzasa su continuidad y las milongas formales están asfixiadas por las presiones tarifarias en un contexto económico recesivo.</flowSpan></flowPara></flowRoot>    <flowRoot
       xml:space="preserve"
       id="flowRoot2443"
       style="font-style:normal;font-variant:normal;font-weight:normal;font-stretch:normal;font-size:40px;line-height:1.25;font-family:Cabin;-inkscape-font-specification:Cabin;letter-spacing:0px;word-spacing:0px;fill:#000000;fill-opacity:1;stroke:none"
       transform="matrix(0.08199634,0,0,0.08199634,121.3483,81.698689)"><flowRegion
         id="flowRegion2445"><rect
           id="rect2447"
           width="1380"
           height="337.14285"
           x="-508.57144"
           y="-43.194599" /></flowRegion><flowPara
         id="flowPara2449"
         style="font-size:64px">Las expresiones culturales, particularmente el tango, como identidad rioplantense y patrimonio cultural de la humanidad, requieren de un especial cuidado y fomento en todos los espacios posibles.</flowPara></flowRoot>    <flowRoot
       xml:space="preserve"
       id="flowRoot2451"
       style="fill:black;fill-opacity:1;stroke:none;font-family:Cabin;font-style:normal;font-weight:normal;font-size:40px;line-height:1.25;letter-spacing:0px;word-spacing:0px;-inkscape-font-specification:Cabin;font-stretch:normal;font-variant:normal"><flowRegion
         id="flowRegion2453"><rect
           id="rect2455"
           width="351.42856"
           height="88.944054"
           x="-948.57141"
           y="-252.13866" /></flowRegion><flowPara
         id="flowPara2457" /></flowRoot>    <flowRoot
       xml:space="preserve"
       id="flowRoot2465"
       style="fill:black;fill-opacity:1;stroke:none;font-family:Cabin;font-style:normal;font-weight:normal;font-size:40px;line-height:1.25;letter-spacing:0px;word-spacing:0px;-inkscape-font-specification:Cabin;font-stretch:normal;font-variant:normal"><flowRegion
         id="flowRegion2467"><rect
           id="rect2469"
           width="737.14368"
           height="193.83179"
           x="-508.57227"
           y="5.8307528" /></flowRegion><flowPara
         id="flowPara2471" /></flowRoot>    <g
       id="g4893"
       transform="translate(15.031466,15.345837)" />
    <flowRoot
       xml:space="preserve"
       id="flowRoot4628"
       style="fill:black;stroke:none;stroke-opacity:1;stroke-width:1px;stroke-linejoin:miter;stroke-linecap:butt;fill-opacity:1;font-family:sans-serif;font-style:normal;font-weight:normal;font-size:40px;line-height:125%;letter-spacing:0px;word-spacing:0px"><flowRegion
         id="flowRegion4630"><rect
           id="rect4632"
           width="10.101525"
           height="84.852814"
           x="-1844.5386"
           y="-126.02886" /></flowRegion><flowPara
         id="flowPara4634" /></flowRoot>  </g>
</svg>
